<svg width="26" height="26" viewBox="0 0 26 26" fill="none" xmlns="http://www.w3.org/2000/svg">
<g clip-path="url(#clip0_1_2)">
<path d="M18.4477 26H7.55232C3.38112 26 0 22.6189 0 18.4477V7.55232C0 3.38112 3.38112 0 7.55232 0H18.4477C22.6189 0 26 3.38112 26 7.55232V18.4477C26 22.6189 22.6189 26 18.4477 26Z" fill="url(#paint0_radial_1_2)"/>
<path d="M15.8433 20.3324H10.1567C7.68177 20.3324 5.66757 18.3182 5.66757 15.8433V10.1567C5.66757 7.68177 7.68177 5.66757 10.1567 5.66757H15.8414C18.3163 5.66757 20.3305 7.68177 20.3305 10.1567V15.8414C20.3324 18.3182 18.3182 20.3324 15.8433 20.3324ZM10.1567 6.76605C8.28718 6.76605 6.76415 8.28718 6.76415 10.1586V15.8433C6.76415 17.7128 8.28527 19.2358 10.1567 19.2358H15.8414C17.7109 19.2358 19.2339 17.7147 19.2339 15.8433V10.1567C19.2339 8.28718 17.7128 6.76415 15.8414 6.76415H10.1567V6.76605Z" fill="white"/>
<path d="M12.999 16.7095C10.9544 16.7095 9.29047 15.0456 9.29047 13.001C9.29047 10.9563 10.9544 9.29238 12.999 9.29238C15.0437 9.29238 16.7076 10.9563 16.7076 13.001C16.7095 15.0456 15.0456 16.7095 12.999 16.7095ZM12.999 10.4156C11.5731 10.4156 10.4137 11.575 10.4137 13.001C10.4137 14.4269 11.5731 15.5863 12.999 15.5863C14.425 15.5863 15.5844 14.4269 15.5844 13.001C15.5844 11.575 14.425 10.4156 12.999 10.4156Z" fill="white"/>
<path d="M18.0783 8.88687C18.0783 9.41993 17.6462 9.85209 17.1131 9.85209C16.5801 9.85209 16.1479 9.41993 16.1479 8.88687C16.1479 8.35381 16.5801 7.92165 17.1131 7.92165C17.6462 7.92165 18.0783 8.35381 18.0783 8.88687Z" fill="white"/>
</g>
<defs>
<radialGradient id="paint0_radial_1_2" cx="0" cy="0" r="1" gradientUnits="userSpaceOnUse" gradientTransform="translate(-2.84091 35.1125) scale(54.2037)">
<stop stop-color="#F9ED41"/>
<stop offset="0.2412" stop-color="#FF833D"/>
<stop offset="0.401" stop-color="#EE5568"/>
<stop offset="0.4888" stop-color="#E7407B"/>
<stop offset="1" stop-color="#0028FF"/>
</radialGradient>
<clipPath id="clip0_1_2">
<rect width="26" height="26" fill="white"/>
</clipPath>
</defs>
</svg>
