<svg width="30" height="30" viewBox="0 0 30 30" fill="none" xmlns="http://www.w3.org/2000/svg">
<path d="M5.544 23.09C4.848 23.09 4.062 23.03 3.186 22.91C2.706 22.85 2.376 22.724 2.196 22.532C2.016 22.34 1.938 22.028 1.962 21.596C2.046 20.408 2.244 18.944 2.556 17.204C2.868 15.452 3.246 13.766 3.69 12.146C3.774 11.846 3.942 11.636 4.194 11.516C4.446 11.396 4.776 11.336 5.184 11.336C5.916 11.336 6.282 11.54 6.282 11.948C6.282 12.116 6.246 12.308 6.174 12.524C5.862 13.484 5.55 14.774 5.238 16.394C4.926 18.002 4.704 19.538 4.572 21.002C4.932 21.038 5.34 21.056 5.796 21.056C7.896 21.056 9.462 20.42 10.494 19.148C11.538 17.876 12.06 16.178 12.06 14.054C12.06 12.626 11.652 11.522 10.836 10.742C10.02 9.962 8.868 9.572 7.38 9.572C6.42 9.572 5.466 9.722 4.518 10.022C3.582 10.322 2.736 10.718 1.98 11.21C1.824 11.318 1.656 11.372 1.476 11.372C1.272 11.372 1.11 11.288 0.99 11.12C0.87 10.94 0.81 10.724 0.81 10.472C0.81 10.184 0.858 9.95 0.954 9.77C1.05 9.578 1.212 9.404 1.44 9.248C2.268 8.684 3.24 8.258 4.356 7.97C5.472 7.67 6.546 7.52 7.578 7.52C9.042 7.52 10.308 7.778 11.376 8.294C12.444 8.798 13.266 9.542 13.842 10.526C14.418 11.51 14.706 12.698 14.706 14.09C14.706 15.902 14.346 17.486 13.626 18.842C12.906 20.186 11.856 21.23 10.476 21.974C9.096 22.718 7.452 23.09 5.544 23.09ZM20.9329 23.144C19.3369 23.144 18.0589 22.844 17.0989 22.244C16.1389 21.632 15.6589 20.702 15.6589 19.454C15.6589 18.794 15.7729 18.29 16.0009 17.942C16.2289 17.594 16.5649 17.42 17.0089 17.42C17.3329 17.42 17.5969 17.504 17.8009 17.672C18.0049 17.84 18.1069 18.056 18.1069 18.32C18.1069 18.56 18.0889 18.77 18.0529 18.95C18.0529 18.998 18.0409 19.082 18.0169 19.202C18.0049 19.322 17.9989 19.448 17.9989 19.58C17.9989 20.12 18.2689 20.522 18.8089 20.786C19.3609 21.05 20.1289 21.182 21.1129 21.182C22.1329 21.182 22.9309 21.002 23.5069 20.642C24.0829 20.27 24.3709 19.754 24.3709 19.094C24.3709 18.686 24.2389 18.338 23.9749 18.05C23.7109 17.75 23.3809 17.504 22.9849 17.312C22.5889 17.108 22.0309 16.862 21.3109 16.574C20.3869 16.214 19.6309 15.872 19.0429 15.548C18.4669 15.224 17.9689 14.786 17.5489 14.234C17.1409 13.67 16.9369 12.974 16.9369 12.146C16.9369 11.282 17.1649 10.514 17.6209 9.842C18.0889 9.17 18.7549 8.648 19.6189 8.276C20.4949 7.904 21.5209 7.718 22.6969 7.718C23.5729 7.718 24.3769 7.85 25.1089 8.114C25.8409 8.366 26.4229 8.756 26.8549 9.284C27.2989 9.812 27.5209 10.46 27.5209 11.228C27.5209 11.984 27.4069 12.554 27.1789 12.938C26.9509 13.322 26.6149 13.514 26.1709 13.514C25.8589 13.514 25.5949 13.418 25.3789 13.226C25.1749 13.034 25.0729 12.806 25.0729 12.542C25.0729 12.314 25.0909 12.104 25.1269 11.912C25.1629 11.552 25.1809 11.324 25.1809 11.228C25.1809 10.724 24.9349 10.34 24.4429 10.076C23.9509 9.812 23.3389 9.68 22.6069 9.68C21.5749 9.68 20.7829 9.872 20.2309 10.256C19.6909 10.628 19.4209 11.156 19.4209 11.84C19.4209 12.296 19.5589 12.686 19.8349 13.01C20.1229 13.334 20.4769 13.604 20.8969 13.82C21.3169 14.036 21.9049 14.294 22.6609 14.594C23.5729 14.966 24.3049 15.302 24.8569 15.602C25.4089 15.902 25.8769 16.31 26.2609 16.826C26.6569 17.342 26.8549 17.978 26.8549 18.734C26.8549 20.15 26.3149 21.242 25.2349 22.01C24.1669 22.766 22.7329 23.144 20.9329 23.144Z" fill="#333333"/>
<path d="M7 15L8.85 17.775L12.55 15" stroke="url(#paint0_linear_22_7)" stroke-width="1.85" stroke-linecap="round"/>
<defs>
<linearGradient id="paint0_linear_22_7" x1="7" y1="18" x2="9.775" y2="17.775" gradientUnits="userSpaceOnUse">
<stop stop-color="#F964C7"/>
<stop offset="1" stop-color="#EC0043"/>
</linearGradient>
</defs>
</svg>
